<svg width="100%" height="100%" xmlns="http://www.w3.org/2000/svg">
  <defs>
    <pattern id="grid" width="40" height="40" patternUnits="userSpaceOnUse">
      <path d="M 40 0 L 0 0 0 40" fill="none" stroke="rgba(255, 255, 255, 0.05)" stroke-width="1"/>
    </pattern>
    <radialGradient id="depth" cx="50%" cy="50%" r="70%" fx="50%" fy="50%">
      <stop offset="0%" stop-color="rgba(30, 64, 175, 0.3)" />
      <stop offset="100%" stop-color="rgba(30, 58, 138, 0)" />
    </radialGradient>
  </defs>
  <rect width="100%" height="100%" fill="url(#grid)" />
  <rect width="100%" height="100%" fill="url(#depth)" />
  <g fill="rgba(255, 255, 255, 0.07)">
    <circle cx="10%" cy="20%" r="1" />
    <circle cx="25%" cy="15%" r="1.5" />
    <circle cx="40%" cy="30%" r="1" />
    <circle cx="60%" cy="10%" r="1.2" />
    <circle cx="75%" cy="25%" r="1" />
    <circle cx="90%" cy="15%" r="1.3" />
    <circle cx="15%" cy="45%" r="1" />
    <circle cx="30%" cy="60%" r="1.4" />
    <circle cx="45%" cy="50%" r="1" />
    <circle cx="65%" cy="70%" r="1.2" />
    <circle cx="80%" cy="55%" r="1" />
    <circle cx="95%" cy="65%" r="1.5" />
    <circle cx="5%" cy="85%" r="1.2" />
    <circle cx="20%" cy="75%" r="1" />
    <circle cx="35%" cy="90%" r="1.3" />
    <circle cx="55%" cy="80%" r="1" />
    <circle cx="70%" cy="95%" r="1.4" />
    <circle cx="85%" cy="85%" r="1" />
  </g>
</svg>